<svg width="24" height="24" xmlns="http://www.w3.org/2000/svg" fill-rule="evenodd" clip-rule="evenodd"><path d="M7 16.488l1.526-.723c1.792-.81 2.851-.344 4.349.232 1.716.661 2.365.883 3.077 1.164 1.278.506.688 2.177-.592 1.838-.778-.206-2.812-.795-3.38-.931-.64-.154-.93.602-.323.818 1.106.393 2.663.79 3.494 1.007.831.218 1.295-.145 1.881-.611.906-.72 2.968-2.909 2.968-2.909.842-.799 1.991-.135 1.991.72 0 .23-.083.474-.276.707-2.328 2.793-3.06 3.642-4.568 5.226-.623.655-1.342.974-2.204.974-.442 0-.922-.084-1.443-.25-1.825-.581-4.172-1.313-6.5-1.6v-5.662zm-1 6.538h-4v-8h4v8zm1-7.869v-1.714c-.006-1.557.062-2.447 1.854-2.861 1.963-.453 4.315-.859 3.384-2.577-2.761-5.092-.787-7.979 2.177-7.979 2.907 0 4.93 2.78 2.177 7.979-.904 1.708 1.378 2.114 3.384 2.577 1.799.415 1.859 1.311 1.853 2.879 0 .13-.011 1.171 0 1.665-.483-.309-1.442-.552-2.187.106-.535.472-.568.504-1.783 1.629-1.75-.831-4.456-1.883-6.214-2.478-.896-.304-2.04-.308-2.962.075l-1.683.699z" fill="#5764c6"/></svg>
